/* XPM */
static char *_2b90fc13909419afa620e286ca1241ajiUg7CDLiNA5vwBD[] = {
/* columns rows colors chars-per-pixel */
"16 16 33 1 ",
"  c #281A0C",
". c #281B0C",
"X c #291B0C",
"o c #32200E",
"O c #33200E",
"+ c #32200F",
"@ c #33210F",
"# c #3C2813",
"$ c #3D2813",
"% c #3C2913",
"& c #412B12",
"* c #402B13",
"= c #412B13",
"- c #483016",
"; c #493016",
": c #483116",
"> c #483017",
", c #493017",
"< c #53361A",
"1 c #52371A",
"2 c #53371A",
"3 c #52361B",
"4 c #53361B",
"5 c #53371B",
"6 c #624224",
"7 c #634224",
"8 c #624324",
"9 c #624225",
"0 c #634225",
"q c #734B24",
"w c #724A25",
"e c #724B25",
"r c #734B25",
/* pixels */
",,1114>44,,>,>,*",
",*XX..@11*XXXX@,",
",X%%##r1,.#$%%r;",
",X%,>>r>,X#,,,r4",
",@,,,1r1:@:,,1r2",
",@;121r41@:411r2",
",@66rr621@66qq7,",
":11;12225=222,2,",
">>5511>1>>>555>>",
",=XX..@1>$XXXX@5",
",X*$##r:5X%$%%r5",
",X$>>=r25X*>,,r5",
",@:,>4r52@,;,2r2",
",@,225r52@,211r;",
",@86rr6:2@66rr7;",
":,,244*,4211;;;,"
};
